<svg width="65" height="65" viewBox="0 0 65 65" fill="none" xmlns="http://www.w3.org/2000/svg">
<path d="M46.0789 32.2443C46.0789 33.3126 46.9363 34.1787 47.9942 34.1787H52.3501C54.5676 34.1787 56.7584 34.692 58.7382 35.7008C59.3284 36.0016 60.0064 36.1524 60.723 36.1041C62.6219 35.9761 64.1613 34.4164 64.2825 32.4983C64.4248 30.2465 62.6589 28.3757 60.4599 28.3757C59.8642 28.3757 59.3004 28.513 58.7978 28.7581C56.7804 29.7418 54.5896 30.3101 52.3494 30.3101H47.9942C46.9364 30.31 46.0789 31.1761 46.0789 32.2443Z" fill="#FB4C47"/>
<path d="M20.1239 44.8031C19.5056 44.1786 18.503 44.1786 17.8846 44.8031L15.338 47.375C14.0417 48.6842 12.4639 49.6774 10.7226 50.2566C10.2034 50.4293 9.71973 50.7413 9.32881 51.1927C8.29287 52.3886 8.29572 54.2093 9.33513 55.4023C10.5554 56.8027 12.6706 56.8538 13.9562 55.5555C14.3043 55.2039 14.5545 54.7906 14.7065 54.3507C15.3165 52.5845 16.2684 50.9589 17.578 49.6363L20.1241 47.0649C20.7423 46.4401 20.7423 45.4276 20.1239 44.8031V44.8031Z" fill="#FB4C47"/>
<path d="M43.0938 21.6067C43.7409 22.2602 44.7899 22.2602 45.4371 21.6067L48.1019 18.9155C49.4585 17.5455 51.1095 16.5061 52.9317 15.9C53.4749 15.7193 53.9811 15.3928 54.3901 14.9204C55.4741 13.6689 55.4712 11.7637 54.3834 10.5154C53.1065 9.05 50.893 8.99655 49.5478 10.3551C49.1834 10.7231 48.9218 11.1555 48.7626 11.6159C48.1243 13.464 47.1283 15.1651 45.758 16.5492L43.0936 19.24C42.4466 19.8936 42.4466 20.9531 43.0938 21.6067V21.6067Z" fill="#FB4C47"/>
<path d="M32.5592 45.897C31.5014 45.897 30.6438 46.7629 30.6438 47.8313V52.2305C30.6438 54.47 30.1355 56.6825 29.1367 58.682C28.8388 59.278 28.6895 59.9628 28.7373 60.6865C28.8641 62.6042 30.4085 64.1589 32.3077 64.2813C34.5373 64.425 36.3897 62.6417 36.3897 60.4208C36.3897 59.8192 36.2537 59.2498 36.011 58.7422C35.0371 56.7048 34.4744 54.4922 34.4744 52.2298V47.8313C34.4745 46.7631 33.6169 45.897 32.5592 45.897V45.897Z" fill="#FFA2A1"/>
<path d="M36.0138 58.7423C35.0399 56.7049 34.4771 54.4923 34.4771 52.2299V47.8313C34.4771 46.7631 33.6197 45.897 32.5618 45.897C31.5039 45.897 30.6465 46.7629 30.6465 47.8313V52.2299C30.6465 54.4923 31.2092 56.7048 32.1832 58.7423C32.4258 59.2499 32.5618 59.8193 32.5618 60.4209C32.5618 61.8517 31.7924 63.1 30.6492 63.7693C31.1451 64.0606 31.7099 64.2428 32.3104 64.2815C34.5401 64.4252 36.3925 62.6418 36.3925 60.4209C36.3925 59.8193 36.2565 59.2499 36.0138 58.7423V58.7423Z" fill="#FB4C47"/>
<path d="M18.2657 24.2557C21.7211 24.2557 24.5223 21.4267 24.5223 17.9369C24.5223 14.4472 21.7211 11.6182 18.2657 11.6182C14.8102 11.6182 12.009 14.4472 12.009 17.9369C12.009 21.4267 14.8102 24.2557 18.2657 24.2557Z" fill="#FF807E"/>
<path d="M18.2647 11.6182C17.5965 11.6182 16.9532 11.7251 16.3494 11.921C18.8677 12.7381 20.6907 15.1221 20.6907 17.9369C20.6907 20.7518 18.8677 23.1358 16.3494 23.9529C16.9531 24.1488 17.5964 24.2557 18.2647 24.2557C21.7202 24.2557 24.5213 21.4267 24.5213 17.9369C24.5213 14.4471 21.72 11.6182 18.2647 11.6182V11.6182Z" fill="#FB4C47"/>
<path d="M32.5606 52.8769C43.8437 52.8769 52.9904 43.6394 52.9904 32.2442C52.9904 20.8491 43.8437 11.6116 32.5606 11.6116C21.2776 11.6116 12.1309 20.8491 12.1309 32.2442C12.1309 43.6394 21.2776 52.8769 32.5606 52.8769Z" fill="#FFBFBE"/>
<path d="M32.5618 11.6116C31.9158 11.6116 31.2772 11.6432 30.6465 11.7026C41.0312 12.6779 49.1611 21.5016 49.1611 32.2442C49.1611 42.9869 41.0314 51.8105 30.6466 52.7859C31.2772 52.8451 31.9159 52.8769 32.5619 52.8769C43.8451 52.8769 52.9917 43.6394 52.9917 32.2442C52.9917 20.8491 43.8449 11.6116 32.5618 11.6116V11.6116Z" fill="#FFA2A2"/>
<path d="M40.2194 29.3825C42.5113 29.3825 44.3692 27.5062 44.3692 25.1915C44.3692 22.8769 42.5113 21.0005 40.2194 21.0005C37.9275 21.0005 36.0696 22.8769 36.0696 25.1915C36.0696 27.5062 37.9275 29.3825 40.2194 29.3825Z" fill="#FFA2A1"/>
<path d="M40.2225 21.0005C39.5313 21.0005 38.8803 21.1721 38.3071 21.4739C39.6347 22.173 40.5416 23.5749 40.5416 25.1915C40.5416 26.8082 39.6347 28.2101 38.3071 28.9091C38.8803 29.2109 39.5313 29.3825 40.2225 29.3825C42.5144 29.3825 44.3723 27.5061 44.3723 25.1915C44.3723 22.8769 42.5144 21.0005 40.2225 21.0005V21.0005Z" fill="#FF807E"/>
<path d="M25.2556 43.1413C26.8071 43.1413 28.0647 41.8711 28.0647 40.3043C28.0647 38.7375 26.8071 37.4673 25.2556 37.4673C23.7042 37.4673 22.4465 38.7375 22.4465 40.3043C22.4465 41.8711 23.7042 43.1413 25.2556 43.1413Z" fill="#FF807E"/>
<path d="M46.4582 51.4151C48.5738 51.4151 50.2887 49.6831 50.2887 47.5465C50.2887 45.41 48.5738 43.678 46.4582 43.678C44.3427 43.678 42.6277 45.41 42.6277 47.5465C42.6277 49.6831 44.3427 51.4151 46.4582 51.4151Z" fill="#FB4C47"/>
<path d="M46.4588 43.678C45.7609 43.678 45.107 43.8675 44.5435 44.1968C45.6881 44.8658 46.4588 46.1149 46.4588 47.5467C46.4588 48.9784 45.6881 50.2274 44.5435 50.8965C45.107 51.2259 45.7609 51.4154 46.4588 51.4154C48.5744 51.4154 50.2893 49.6833 50.2893 47.5468C50.2893 45.4103 48.5744 43.678 46.4588 43.678V43.678Z" fill="#FF807E"/>
<path d="M19.0417 32.2443C19.0417 33.3126 18.1843 34.1787 17.1264 34.1787H12.7705C10.5529 34.1787 8.36222 34.692 6.38244 35.7008C5.79221 36.0016 5.11423 36.1524 4.39758 36.1041C2.49873 35.9761 0.959333 34.4164 0.838114 32.4983C0.695825 30.2465 2.46167 28.3757 4.66071 28.3757C5.25639 28.3757 5.82022 28.513 6.32282 28.7581C8.34015 29.7418 10.531 30.3101 12.7712 30.3101H17.1265C18.1841 30.31 19.0417 31.1761 19.0417 32.2443Z" fill="#FB4C47"/>
<path d="M32.559 18.5917C33.6168 18.5917 34.4744 17.7257 34.4744 16.6574V12.2582C34.4744 10.0186 34.9827 7.80616 35.9816 5.80672C36.2794 5.21063 36.4287 4.52591 36.3809 3.80215C36.2541 1.88445 34.7097 0.329757 32.8105 0.207335C30.5809 0.0636323 28.7285 1.84702 28.7285 4.06789C28.7285 4.66949 28.8645 5.23892 29.1072 5.74651C30.0811 7.78388 30.6438 9.99649 30.6438 12.2589V16.6575C30.6437 17.7256 31.5013 18.5917 32.559 18.5917Z" fill="#FFA2A1"/>
<path d="M36.3819 3.80213C36.2551 1.88443 34.7107 0.329747 32.8115 0.207324C32.0183 0.156127 31.2735 0.3499 30.6421 0.719545C31.7147 1.34956 32.4645 2.49079 32.5512 3.80213C32.5991 4.5259 32.4497 5.21062 32.1519 5.8067C31.153 7.80614 30.6447 10.0186 30.6447 12.2582V16.6574C30.6447 17.7256 31.5021 18.5917 32.56 18.5917C33.6179 18.5917 34.4754 17.7257 34.4754 16.6574V12.2582C34.4754 10.0186 34.9837 7.80614 35.9825 5.8067C36.2804 5.21062 36.4299 4.5259 36.3819 3.80213V3.80213Z" fill="#FB4C47"/>
<path d="M60.4634 28.3779C59.8681 28.3779 59.3046 28.5151 58.8023 28.7601C58.7134 28.8034 58.6237 28.845 58.5342 28.8866C59.754 29.5919 60.5529 30.9554 60.4553 32.4981C60.3719 33.8175 59.6171 34.967 58.5359 35.5973C58.6048 35.631 58.6741 35.6639 58.7425 35.6987C59.3325 35.9993 60.01 36.1501 60.7263 36.1018C62.624 35.9737 64.1625 34.4151 64.2836 32.4981C64.4259 30.2476 62.6611 28.3779 60.4634 28.3779V28.3779Z" fill="#FF807E"/>
</svg>
